<svg viewBox="122.5 86.7 124.4 18" xmlns="http://www.w3.org/2000/svg"><g data-name="Layer 2"><g data-name="Layer 1" transform="translate(92.6 85.5)"><g data-name="Layer 2"><g data-name="Layer 1-2"><path class="cls-4" d="M41.8 5.8a4 4 0 00-3-1.2h-9v14.3h3.4v-6.2h6.4a3.4 3.4 0 001-.4 4 4 0 002.3-3.7 4 4 0 00-1.1-2.8zm-2.2 2.8a.8.8 0 01-.4.7l-.2.1h-5.8V7.8h5.6a.8.8 0 01.6.3.9.9 0 01.2.5zM47.2 14.4V4.6H44v9.6a4.7 4.7 0 004.7 4.7H56v-3.3h-7.5a1.5 1.5 0 01-1.2-1.2zM66.5 11.7a3.9 3.9 0 01-7.8 0V4.5h-3.3v7.2a7.2 7.2 0 0014.4 0V4.5h-3.3zM83.4 11.2l-.2-.1a4.7 4.7 0 00-3.5-1.6H75a.8.8 0 01-.8-.8.8.8 0 01.8-.8h5.5a.8.8 0 01.7.7v.6h3.3v-.6a4 4 0 00-4-4h-5.5a4 4 0 00-4 4v.1a4.1 4.1 0 00.6 2.3 3.6 3.6 0 00.6.7 4 4 0 002.8 1h4.8a1.4 1.4 0 010 2.9h-4.2a1.4 1.4 0 01-1.4-1.4v-.4h-3.3v.4a4.7 4.7 0 004.7 4.7h4.2a4.7 4.7 0 003.7-7.7z" fill="#fff"/><path class="cls-3" fill="#a5aeb9" d="M85.8 15.7L84 19.1h4.3l3.7-7.3 3.8 7.3h4.2L92 3.4l-6.2 12.3zM108.9 11.7a3.6 3.6 0 11-7.2.2V4.3h-3.9v7.4a7.4 7.4 0 1015 0V4.3h-3.9zM113.2 8.1h5.5v11h3.8v-11h5.6V4.3h-14.9V8zM139.6 4.3v4.9h-7.2v-5h-3.8v15h3.8V13h7.2V19h3.9V4.3h-3.9z"/></g></g><rect class="cls-5" x="136.7" y="1.1" width="17.6" height="6.8" rx=".9" fill="#dd1919"/><path class="cls-6" d="M137.4 2.5h1.3a3 3 0 011.6.4 1 1 0 01.4.8c0 .3-.2.6-.7.8.6.2.8.5.8 1a1 1 0 01-.5.8 2.4 2.4 0 01-1.3.3h-1.6zm1.3.8v.9c.5 0 .8-.2.8-.4a.3.3 0 00-.2-.4 1.5 1.5 0 00-.6 0zm0 1.6v.9a2 2 0 00.7-.1.3.3 0 00.2-.4c0-.2-.3-.4-.8-.4zM142.2 2.5h2.5v1h-1.3V4h1.1V5h-1v.7h1.2v.9h-2.5zM145.7 2.5h3v1h-.9v3h-1.2v-3h-.9zM153.6 6.6h-1.3l-.2-.7h-1.3l-.2.7h-1.3l1.5-4h1.3zm-1.7-1.4a14 14 0 01-.4-1.7 14.1 14.1 0 01-.5 1.7z" fill="#eaeaea"/></g></g></svg>
